<?xml version="1.0" encoding="UTF-8" standalone="no"?>
<!-- Generator: Adobe Illustrator 19.0.0, SVG Export Plug-In . SVG Version: 6.00 Build 0)  -->

<svg
   version="1.1"
   id="Layer_1"
   x="0px"
   y="0px"
   viewBox="0 0 256 256"
   xml:space="preserve"
   sodipodi:docname="logo.svg"
   width="256"
   height="256"
   inkscape:version="1.2.2 (b0a8486541, 2022-12-01)"
   xmlns:inkscape="http://www.inkscape.org/namespaces/inkscape"
   xmlns:sodipodi="http://sodipodi.sourceforge.net/DTD/sodipodi-0.dtd"
   xmlns="http://www.w3.org/2000/svg"
   xmlns:svg="http://www.w3.org/2000/svg"><defs
   id="defs49" /><sodipodi:namedview
   id="namedview47"
   pagecolor="#ffffff"
   bordercolor="#000000"
   borderopacity="0.25"
   inkscape:showpageshadow="2"
   inkscape:pageopacity="0.0"
   inkscape:pagecheckerboard="0"
   inkscape:deskcolor="#d1d1d1"
   showgrid="false"
   inkscape:zoom="2.0058594"
   inkscape:cx="255.75073"
   inkscape:cy="256.49854"
   inkscape:window-width="2560"
   inkscape:window-height="1371"
   inkscape:window-x="0"
   inkscape:window-y="0"
   inkscape:window-maximized="1"
   inkscape:current-layer="Layer_1" />
<circle
   style="fill:#a8adf0;stroke-width:0.5"
   cx="128.15649"
   cy="128"
   id="circle2"
   r="123.958" />
<path
   style="fill:#989fec;stroke-width:0.5"
   d="m 128.159,4.042 c -5.48,0 -10.876,0.36 -16.1685,1.0495 C 172.811,13.0145 219.78,65.02 219.78,128 c 0,62.98 -46.9695,114.9855 -107.7895,122.9085 5.2925,0.6895 10.6885,1.0495 16.1685,1.0495 68.46,0 123.958,-55.498 123.958,-123.958 0,-68.46 -55.4975,-123.958 -123.958,-123.958 z"
   id="path4" />
<path
   style="fill:#ffffff;stroke-width:0.5"
   d="m 206.5165,59.325 -0.612,-1.552 c -0.018,-0.0445 -0.0525,-0.0815 -0.0965,-0.1015 l -1.5195,-0.69 c -12.508,-5.681 -30.1515,-7.083 -45.7615,-7.7045 h -17.5815 c -0.1985,0 -0.259,0.2685 -0.0805,0.354 l 36.1145,17.3135 c 0.2035,0.0975 0.091,0.4005 -0.1275,0.3435 -16.2425,-4.2405 -32.65,-6.3875 -48.852,-6.3875 -16.15,0 -32.5045,2.1335 -48.6965,6.3485 -0.2205,0.057 -0.332,-0.2495 -0.1255,-0.345 l 37.3815,-17.2705 c 0.181,-0.0835 0.122,-0.355 -0.078,-0.355 H 97.473 C 81.8635,49.9 64.2195,51.3015 51.7115,56.983 l -1.5195,0.69 c -0.044,0.02 -0.0785,0.056 -0.0965,0.1015 l -0.612,1.552 C 36.6835,91.763 33.046,146.827 36.925,181.3225 l 0.203,1.809 1.439,1.116 c 19.997,15.5065 46.7355,23.4785 63.5565,25.5945 l 2.175,0.274 c 0.707,0.089 1.3825,-0.3195 1.6325,-0.987 l 10.948,-29.25 c 0.341,-0.912 -0.24,-1.9075 -1.2015,-2.058 l -3.3595,-0.5275 C 100.604,175.453 84.0075,170.574 69.9815,157.856 c -0.2995,-0.2715 -0.011,-0.761 0.3685,-0.6205 1.1395,0.4235 2.395,0.914 3.6885,1.4195 3.1715,1.239 6.4515,2.52 8.592,3.029 15.042,3.576 30.2955,5.3895 45.3685,5.3895 v -0.2685 h 0.0315 l 0.002,0.2685 c 15.0425,0 30.2955,-1.8135 45.335,-5.39 2.141,-0.509 5.4215,-1.79 8.5935,-3.0295 1.293,-0.505 2.548,-0.9955 3.6865,-1.4185 0.3795,-0.141 0.6685,0.3485 0.3685,0.6205 -13.9785,12.6625 -30.5955,17.528 -42.336,19.367 l -3.3585,0.526 c -0.9615,0.1505 -1.5435,1.1455 -1.203,2.057 l 10.95,29.322 c 0.2495,0.668 0.9255,1.077 1.6325,0.988 l 2.177,-0.274 c 16.82,-2.1155 43.5565,-10.088 63.5545,-25.5945 l 1.439,-1.116 0.203,-1.809 c 3.8795,-34.497 0.242,-89.5615 -12.558,-121.9975 z m -114.25,79.6345 C 78.669,140.172 67.324,128.8285 68.535,115.23 c 0.9285,-10.424 9.322,-18.818 19.746,-19.7475 13.5975,-1.2125 24.9425,10.131 23.7315,23.7295 -0.929,10.4235 -9.3225,18.818 -19.746,19.7475 z m 75.453,0 C 154.122,140.172 142.777,128.8285 143.988,115.23 c 0.9285,-10.424 9.322,-18.818 19.746,-19.7475 13.5975,-1.2125 24.9425,10.131 23.7315,23.7295 -0.9295,10.4235 -9.323,18.818 -19.746,19.7475 z"
   id="path6" />
<path
   d="M 218.5095,37.491 C 194.3335,13.314 162.1895,0 128,0 93.8105,0 61.6665,13.314 37.4905,37.491 13.314,61.6665 0,93.81 0,128 0,162.19 13.314,194.3335 37.4905,218.5095 61.6665,242.686 93.81,256 128,256 c 34.19,0 66.3335,-13.314 90.5095,-37.491 C 242.686,194.3335 256,162.1895 256,128 256,93.8105 242.686,61.6665 218.5095,37.491 Z M 128,247.916 C 61.878,247.916 8.084,194.122 8.084,128 8.084,61.878 61.878,8.084 128,8.084 c 66.122,0 119.916,53.794 119.916,119.916 0,66.122 -53.794,119.916 -119.916,119.916 z"
   id="path8"
   style="stroke-width:0.5" />
<path
   d="m 216.176,145.7145 c 0.241,12.784 -0.2345,24.889 -1.385,35.1255 -18.2175,14.127 -43.735,22.496 -61.4505,24.724 l -8.9935,-24.082 c 12.462,-1.9515 31.4395,-7.414 46.835,-22.5775 1.322,-1.3025 1.588,-3.337 0.644,-4.935 -0.943,-1.598 -2.8535,-2.3465 -4.632,-1.8195 -1.818,0.5405 -4.239,1.4865 -6.8025,2.488 -2.894,1.1305 -6.1745,2.412 -8.021,2.8505 -14.7155,3.4995 -29.631,5.273 -44.338,5.273 -0.01,0 -0.0335,0 -0.0335,0 h -0.032 c -14.7065,0 -29.623,-1.774 -44.3385,-5.273 -1.846,-0.4385 -5.1265,-1.72 -8.0205,-2.8505 -2.466,-0.9635 -4.8005,-1.8755 -6.593,-2.4245 -1.6675,-0.511 -3.534,-0.022 -4.5835,1.3705 -1.2385,1.6435 -1.045,3.911 0.386,5.321 15.45,15.217 34.3965,20.6935 46.8325,22.647 l -8.9875,24.0115 C 84.948,203.3355 59.4275,194.966 41.21,180.8395 c -3.8085,-33.877 -0.231,-88.216 12.285,-119.932 11.471,-5.21 28.323,-6.6915 44.15,-7.322 l -25.24,11.704 c -1.9165,0.888 -2.8255,3.1035 -2.0865,5.0825 0.74,1.979 2.8785,3.0545 4.908,2.468 17.517,-5.06 35.2725,-7.6265 52.7735,-7.6265 17.501,0 35.257,2.5665 52.7735,7.6265 2.0275,0.584 4.168,-0.4895 4.908,-2.468 0.74,-1.979 -0.169,-4.1935 -2.0865,-5.0825 l -25.24,-11.704 c 15.8275,0.6305 32.679,2.112 44.15,7.322 6.8455,17.347 11.0165,41.4605 12.768,65.293 0.1555,2.1215 1.9275,3.759 4.0545,3.759 h 0.015 c 2.367,0 4.2335,-2.012 4.0605,-4.3725 -1.85,-25.2455 -6.408,-50.7725 -14.001,-69.191 -0.372,-0.9015 -1.057,-1.639 -1.93,-2.075 -16.07,-8.0335 -41.2185,-8.6795 -61.427,-9.1995 -2.473,-0.0635 -4.863,-0.1245 -7.138,-0.198 -1.918,-0.056 -3.6185,1.237 -4.0625,3.1065 -0.444,1.869 0.4895,3.7925 2.2325,4.6005 l 12.3035,5.7055 c -7.1445,-0.8035 -14.282,-1.208 -21.3815,-1.208 -7.0995,0 -14.2375,0.404 -21.382,1.208 l 12.3035,-5.7055 c 1.743,-0.808 2.6765,-2.7315 2.2325,-4.6005 -0.4435,-1.8695 -2.1395,-3.1605 -4.0625,-3.1065 -2.275,0.0735 -4.6645,0.134 -7.138,0.198 -20.208,0.5195 -45.3575,1.1655 -61.427,9.1995 -0.8725,0.436 -1.558,1.1735 -1.93,2.075 C 32.725,90.0475 28.982,147.428 33.377,183.462 c 0.127,1.0445 0.6565,1.9975 1.4755,2.6575 20.7625,16.7375 50.185,26.036 70.133,27.8265 0.122,0.0115 0.243,0.016 0.363,0.016 1.672,0 3.189,-1.036 3.7835,-2.625 l 11.8735,-31.722 c 0.5825,-1.555 0.1645,-3.351 -1.163,-4.497 -0.65,-0.561 -1.4805,-0.866 -2.3345,-0.9535 -6.231,-0.6365 -15.663,-2.311 -25.6,-6.665 12.0125,2.223 24.0985,3.347 36.059,3.347 h 0.032 c 5e-4,0 0.001,0 0.001,0 h 0.0325 c 11.906,0 23.9385,-1.1135 35.8965,-3.317 -9.861,4.2735 -19.226,5.929 -25.432,6.5635 -0.854,0.0875 -1.685,0.3915 -2.336,0.9505 -1.3305,1.1435 -1.7505,2.941 -1.169,4.4975 l 11.8735,31.7935 c 0.594,1.591 2.1115,2.628 3.7845,2.628 0.1205,0 0.242,-0.006 0.3635,-0.016 19.9485,-1.7905 49.371,-11.089 70.133,-27.8265 0.819,-0.66 1.348,-1.613 1.4755,-2.6575 1.3485,-11.057 1.93,-24.1255 1.688,-37.9005 -0.039,-2.218 -1.852,-3.997 -4.07,-3.997 v 0 c -2.277,5e-4 -4.107,1.872 -4.064,4.1495 z"
   id="path10"
   style="stroke-width:0.5" />
<path
   d="m 90.2735,91.621 c -14.1155,0 -25.6,11.4845 -25.6,25.6 0,14.1155 11.4845,25.6 25.6,25.6 14.1155,0 25.6,-11.4845 25.6,-25.6 0,-14.1155 -11.4845,-25.6 -25.6,-25.6 z m 0,43.116 c -9.658,0 -17.516,-7.8575 -17.516,-17.516 0,-9.6585 7.858,-17.516 17.516,-17.516 9.658,0 17.516,7.8575 17.516,17.516 0,9.6585 -7.858,17.516 -17.516,17.516 z"
   id="path12"
   style="stroke-width:0.5" />
<path
   d="m 165.7265,91.621 c -14.1155,0 -25.6,11.4845 -25.6,25.6 0,14.1155 11.4845,25.6 25.6,25.6 14.1155,0 25.6,-11.4845 25.6,-25.6 0,-14.1155 -11.4845,-25.6 -25.6,-25.6 z m 0,43.116 c -9.658,0 -17.516,-7.8575 -17.516,-17.516 0,-9.6585 7.858,-17.516 17.516,-17.516 9.658,0 17.516,7.8575 17.516,17.516 0,9.6585 -7.8585,17.516 -17.516,17.516 z"
   id="path14"
   style="stroke-width:0.5" />
<g
   id="g16"
   transform="scale(0.5)">
</g>
<g
   id="g18"
   transform="scale(0.5)">
</g>
<g
   id="g20"
   transform="scale(0.5)">
</g>
<g
   id="g22"
   transform="scale(0.5)">
</g>
<g
   id="g24"
   transform="scale(0.5)">
</g>
<g
   id="g26"
   transform="scale(0.5)">
</g>
<g
   id="g28"
   transform="scale(0.5)">
</g>
<g
   id="g30"
   transform="scale(0.5)">
</g>
<g
   id="g32"
   transform="scale(0.5)">
</g>
<g
   id="g34"
   transform="scale(0.5)">
</g>
<g
   id="g36"
   transform="scale(0.5)">
</g>
<g
   id="g38"
   transform="scale(0.5)">
</g>
<g
   id="g40"
   transform="scale(0.5)">
</g>
<g
   id="g42"
   transform="scale(0.5)">
</g>
<g
   id="g44"
   transform="scale(0.5)">
</g>
</svg>
